<svg width="40" height="40" fill="none" xmlns="http://www.w3.org/2000/svg"><rect width="40" height="40" rx="20" fill="#1DA1F2"/><path d="M32.095 13.442c.009-.013.019-.024.027-.037a9.393 9.393 0 01-2.128.65 7.37 7.37 0 01-.536.064 4.717 4.717 0 001.762-1.942c.104-.199.205-.4.282-.612l-.028.015c.004-.013.011-.024.015-.036a9.42 9.42 0 01-2.986 1.141 4.703 4.703 0 00-8.029 4.203l.01.086a13.329 13.329 0 01-8.803-3.934 12.973 12.973 0 01-.864-.967l-.004.007-.017-.02a4.686 4.686 0 00.842 5.779c.18.178.37.346.579.497a4.687 4.687 0 01-2.096-.585v.06c0 1.894 1.129 3.514 2.743 4.26.313.15.64.277.988.359-.383.1-.784.156-1.198.156-.268 0-.526-.031-.781-.074-.026-.008-.055-.01-.08-.018 0 .004.003.007.004.01-.01-.001-.019 0-.028-.002a4.711 4.711 0 003.64 3.192c.24.047.484.077.733.088a9.435 9.435 0 01-5.82 1.999c-.305 0-.604-.025-.902-.053-.069-.012-.14-.017-.207-.033l.04.023c-.018-.001-.036 0-.053-.003a13.31 13.31 0 007.209 2.113c4.78 0 8.355-2.192 10.604-5.198l.023-.029c.215-.288.413-.586.604-.89.039-.06.082-.12.12-.182.175-.29.334-.586.487-.884.038-.075.081-.147.118-.222a14.074 14.074 0 00.49-1.12c.614-1.59.934-3.253.934-4.855 0-.204-.004-.407-.013-.609a9.555 9.555 0 001.935-1.874c.144-.176.287-.354.421-.538l-.037.015z" fill="#fff"/></svg>