<svg width="40" height="40" fill="none" xmlns="http://www.w3.org/2000/svg"><rect width="40" height="40" rx="20" fill="#879FBC"/><path d="M18.569 26.01l-1.36 1.37c-.32.327-.679.562-1.068.723a3.27 3.27 0 01-1.843.187 3.232 3.232 0 01-1.681-.88 3.32 3.32 0 01-.72-1.068 3.281 3.281 0 01-.188-1.847 3.196 3.196 0 01.883-1.676l3.423-3.466a3.256 3.256 0 012.914-.909 3.21 3.21 0 011.679.884c.268.262.473.555.628.867l.037.01a1.9 1.9 0 001.703-.522l1.388-1.387a6.861 6.861 0 00-1.186-1.57 6.933 6.933 0 00-2.293-1.5 6.943 6.943 0 00-3.916-.358c-1.3.26-2.552.904-3.55 1.917l-3.425 3.463a6.843 6.843 0 00-1.504 2.293 6.941 6.941 0 00-.357 3.914 6.868 6.868 0 001.917 3.552 6.844 6.844 0 002.292 1.502c1.252.5 2.612.616 3.914.358a6.884 6.884 0 003.552-1.916l3.425-3.463c.019-.018.033-.037.05-.055l-.075.015a8.257 8.257 0 01-4.64-.438z" fill="#fff"/><path d="M31.854 13.584a6.871 6.871 0 00-1.895-3.564 6.864 6.864 0 00-2.283-1.514 6.915 6.915 0 00-3.912-.38A6.885 6.885 0 0020.2 10.02l-3.444 3.446c-.025.025-.05.054-.079.08l.03-.003a8.228 8.228 0 014.68.426c.006.001.014.007.023.01l1.375-1.374a3.22 3.22 0 011.072-.715 3.27 3.27 0 011.846-.178c.614.12 1.192.411 1.674.893.32.32.555.682.712 1.071.238.585.298 1.23.18 1.847a3.227 3.227 0 01-.892 1.674L23.93 20.64c-.32.321-.683.556-1.072.715a3.284 3.284 0 01-1.845.177 3.215 3.215 0 01-1.674-.892 3.23 3.23 0 01-.615-.855c-.016-.004-.033-.009-.047-.01a1.904 1.904 0 00-1.076.108 1.893 1.893 0 00-.624.421l-1.375 1.39a6.901 6.901 0 003.437 3.046 6.914 6.914 0 007.477-1.517l3.442-3.443a6.9 6.9 0 001.895-6.195z" fill="#fff"/></svg>