<svg width="40" height="40" fill="none" xmlns="http://www.w3.org/2000/svg"><rect width="40" height="40" rx="20" fill="#00B900"/><path d="M34.402 18.253c0-6.473-6.49-11.74-14.467-11.74-7.976 0-14.466 5.267-14.466 11.74 0 5.804 5.147 10.664 12.099 11.583.47.101 1.112.31 1.274.713.146.366.096.939.047 1.308l-.207 1.239c-.063.365-.29 1.43 1.253.78 1.545-.651 8.332-4.906 11.367-8.4 2.096-2.299 3.1-4.632 3.1-7.223z" fill="#fff"/><path d="M29.584 16.704a.281.281 0 00.281-.282v-1.015a.282.282 0 00-.28-.282H25.53a.28.28 0 00-.195.08l-.004.003a.28.28 0 00-.083.2v6.302a.28.28 0 00.282.281h4.054a.282.282 0 00.281-.281v-1.015a.282.282 0 00-.28-.282h-2.758v-1.066h2.757a.281.281 0 00.281-.281V18.05a.282.282 0 00-.28-.282h-2.758v-1.065h2.757zM23.98 15.125h-1.014a.282.282 0 00-.282.281v3.745l-2.889-3.9a.3.3 0 00-.022-.03h-.001a.235.235 0 00-.038-.036l-.007-.005-.015-.01a.21.21 0 00-.023-.014l-.009-.004a.162.162 0 00-.016-.007l-.01-.003a.151.151 0 00-.016-.006l-.01-.002-.016-.004-.012-.001c-.005-.002-.01-.002-.015-.002l-.014-.001h-1.025a.282.282 0 00-.282.28v6.304c0 .155.127.281.282.281h1.015a.282.282 0 00.282-.28v-3.745l2.892 3.906a.278.278 0 00.092.083l.008.004a.117.117 0 00.013.006l.014.006a.07.07 0 00.008.003l.02.007h.004c.023.007.047.01.072.01h1.014a.281.281 0 00.282-.28v-6.304a.282.282 0 00-.282-.282zM16.996 15.125h-1.014a.282.282 0 00-.282.281v6.304c0 .155.126.281.282.281h1.014a.282.282 0 00.282-.28v-6.304a.282.282 0 00-.282-.282zM14.55 20.413h-2.757v-5.006a.282.282 0 00-.282-.282h-1.015a.282.282 0 00-.281.282v6.302a.28.28 0 00.082.2l.005.004c.05.049.118.078.194.078h4.054a.282.282 0 00.281-.282v-1.014a.281.281 0 00-.28-.282z" fill="#00B900"/></svg>