<svg width="23" height="28" fill="none" xmlns="http://www.w3.org/2000/svg"><path d="M11.138 0C5.071 0 .154 4.918.154 10.985c0 3.743 1.895 7.02 4.733 9.033 2.59 1.837 3.162 2.275 4.072 4.014.72 1.375 1.89 3.789 1.89 3.789a.324.324 0 00.58 0s1.168-2.414 1.889-3.79c.91-1.738 1.482-2.176 4.072-4.013 2.838-2.013 4.733-5.29 4.733-9.033C22.123 4.918 17.205 0 11.138 0zm0 16.95c-3.5 0-5.964-1.9-5.964-5.965 0-3.752 2.464-5.964 5.964-5.964 3.807 0 5.964 2.912 5.964 5.964 0 3.642-2.464 5.964-5.964 5.964z" fill="#fff"/></svg>