<svg width="50" height="40" fill="none" xmlns="http://www.w3.org/2000/svg"><path d="M30.722 8.464l-2.047 1.182C24.642 5.536 18.209 4.488 12.99 7.5c-5.218 3.013-7.526 9.108-5.984 14.656L4.96 23.338s2.668 8.05 13.443 8.249c.708.058 1.422.05 2.137-.009l1.477 3.195 10.08-5.82-2.027-2.877a12.94 12.94 0 001.076-1.846c5.214-9.431-.423-15.766-.423-15.766zM17.841 15.9l-8.509 4.913a10.344 10.344 0 01.13-4.79 10.306 10.306 0 014.822-6.284 10.306 10.306 0 017.851-1.033 10.344 10.344 0 014.214 2.281l-8.508 4.913z" fill="#FFA800"/><rect x="27.023" y="10.682" width="12" height="2" rx="1" fill="#FFA800"/><rect x="41.023" y="10.682" width="4" height="2" rx="1" fill="#FFA800"/><rect x="23.023" y="23.682" width="15" height="2" rx="1" fill="#FFA800"/><rect x="45.023" y="26.682" width="4" height="2" rx="1" fill="#FFA800"/><rect x="29.023" y="16.682" width="15" height="2" rx="1" fill="#FFA800"/><rect x="29.023" y="26.682" width="15" height="2" rx="1" fill="#FFA800"/></svg>