<svg clip-rule="evenodd" fill-rule="evenodd" stroke-linejoin="round" stroke-miterlimit="2" viewBox="0 0 768 768" xmlns="http://www.w3.org/2000/svg" xmlns:xlink="http://www.w3.org/1999/xlink"><clipPath id="a"><path clip-rule="evenodd" d="m0 0h768v768h-768z"/></clipPath><path d="m0 0h768v768h-768z" fill="none"/><g clip-path="url(#a)"><g transform="scale(15.36)"><path d="m50 25c0-13.798-11.202-25-25-25s-25 11.202-25 25 11.202 25 25 25 25-11.202 25-25z" fill="#fff"/><g fill="#ffa800"><path d="m30.722 12.464-2.047 1.182c-4.033-4.11-10.466-5.158-15.685-2.146-5.218 3.013-7.526 9.108-5.984 14.656l-2.047 1.182s2.668 8.05 13.443 8.249c.708.058 1.422.051 2.137-.009l1.477 3.195 10.081-5.82-2.028-2.877c.408-.589.772-1.203 1.076-1.846 5.214-9.431-.423-15.766-.423-15.766zm-12.881 7.437-8.509 4.913c-.335-1.602-.283-3.242.131-4.791.687-2.562 2.343-4.851 4.821-6.283 2.478-1.43 5.289-1.719 7.851-1.033 1.549.416 2.994 1.19 4.214 2.282z" fill-rule="nonzero"/><path d="m39.023 15.682c0-.552-.448-1-1-1h-10c-.552 0-1 .448-1 1s.448 1 1 1h10c.552 0 1-.448 1-1z"/><path d="m45.023 15.682c0-.552-.448-1-1-1h-2c-.552 0-1 .448-1 1s.448 1 1 1h2c.552 0 1-.448 1-1z"/><path d="m38.023 28.682c0-.552-.448-1-1-1h-13c-.552 0-1 .448-1 1s.448 1 1 1h13c.552 0 1-.448 1-1z"/><path d="m49.023 31.682c0-.552-.448-1-1-1h-2c-.552 0-1 .448-1 1s.448 1 1 1h2c.552 0 1-.448 1-1z"/><path d="m44.023 21.682c0-.552-.448-1-1-1h-13c-.552 0-1 .448-1 1s.448 1 1 1h13c.552 0 1-.448 1-1z"/><path d="m44.023 31.682c0-.552-.448-1-1-1h-13c-.552 0-1 .448-1 1s.448 1 1 1h13c.552 0 1-.448 1-1z"/></g></g></g></svg>