<svg fill="none" height="51" viewBox="0 0 51 51" width="51" xmlns="http://www.w3.org/2000/svg"><rect fill="#1da1f2" height="51" rx="10" width="51"/><path d="m40.9213 17.1386c.0109-.0161.0237-.0307.0346-.0468-.8569.3799-1.7665.6567-2.7137.8291-.226.034-.4534.0631-.6834.0808.9664-.5918 1.7429-1.4532 2.2466-2.4752.1325-.2542.2608-.5111.3587-.7809-.0113.0068-.0237.0121-.035.0188.005-.0159.0142-.0297.0191-.0456-1.1584.6868-2.4415 1.186-3.8074 1.455-1.0936-1.1655-2.652-1.8935-4.3765-1.8935-3.3118 0-5.9963 2.6845-5.9963 5.9958 0 .4312.0498.8504.1361 1.2559.0053.037.0083.0727.0136.1099-4.3825-.2212-8.3259-2.0975-11.224-5.0151-.3849-.393-.7563-.8011-1.1027-1.2338-.0018.0031-.0028.006-.0045.009-.0071-.0085-.0151-.0158-.0222-.0245-.516.8857-.8116 1.9154-.8116 3.0144 0 1.7168.728 3.2597 1.8847 4.3533.2297.2262.4727.4411.7386.6336-.9664-.038-1.8756-.3037-2.6719-.746-.0003.0251-.0005.0501-.0005.0755 0 2.4158 1.4394 4.4816 3.4984 5.4314.3991.1919.8146.3548 1.2587.4583-.4879.1281-.9989.1998-1.5269.1998-.3412 0-.671-.0399-.9963-.095-.0332-.0093-.0699-.0116-.1024-.0222.0016.0045.0039.0085.0053.0129-.0113-.0021-.0237-.0013-.0348-.0034.6678 2.0853 2.4481 3.6734 4.6412 4.0694.3046.0609.6166.0987.9342.1135-2.0482 1.5964-4.6233 2.5481-7.4211 2.5481-.389 0-.7702-.0314-1.1498-.0674-.0876-.0156-.1784-.0214-.2639-.0425.0166.0106.0342.0196.0507.0302-.0221-.0025-.0452-.0016-.0671-.004 2.6534 1.7013 5.805 2.6938 9.1914 2.6938 6.0934 0 10.6525-2.7946 13.5205-6.6271.0095-.0127.0201-.0244.0294-.037.2742-.3684.5266-.7483.7691-1.1342.0499-.0787.1051-.154.1536-.2335.2236-.3686.4255-.7465.6206-1.1274.0486-.0948.1039-.1864.1507-.2823.2273-.4638.4321-.935.6169-1.4117.0024-.0056.0048-.0111.0071-.0167.7838-2.0262 1.1921-4.1475 1.1921-6.1901 0-.2602-.0058-.5187-.0174-.7758.9319-.6728 1.7602-1.4832 2.4671-2.3899.184-.2247.3661-.4509.5372-.6858-.0153.007-.0314.0123-.0468.0189z" fill="#fff"/></svg>