<svg width="40" height="40" viewBox="0 0 40 40" fill="none" xmlns="http://www.w3.org/2000/svg">
<rect width="40" height="40" rx="20" fill="#1DA1F2"/>
<path d="M32.0953 13.4418C32.1038 13.4292 32.1139 13.4178 32.1224 13.4051C31.4503 13.7031 30.7369 13.9202 29.994 14.0554C29.8168 14.0821 29.6384 14.1049 29.4581 14.1187C30.216 13.6546 30.825 12.979 31.2201 12.1774C31.3241 11.9781 31.4247 11.7766 31.5015 11.5649C31.4926 11.5703 31.4829 11.5744 31.474 11.5797C31.4779 11.5673 31.4851 11.5564 31.4889 11.5439C30.5804 12.0826 29.5741 12.4741 28.5028 12.6851C27.645 11.771 26.4227 11.2 25.0702 11.2C22.4727 11.2 20.3672 13.3055 20.3672 15.9026C20.3672 16.2408 20.4063 16.5696 20.474 16.8877C20.4781 16.9167 20.4805 16.9446 20.4846 16.9738C17.0474 16.8004 13.9545 15.3287 11.6815 13.0404C11.3796 12.7322 11.0883 12.4121 10.8166 12.0727C10.8152 12.0751 10.8144 12.0775 10.8131 12.0798C10.8075 12.0731 10.8013 12.0674 10.7957 12.0606C10.391 12.7552 10.1591 13.5629 10.1591 14.4248C10.1591 15.7713 10.7302 16.9814 11.6373 17.8392C11.8175 18.0166 12.0081 18.1851 12.2167 18.3361C11.4587 18.3063 10.7456 18.0979 10.121 17.751C10.1208 17.7707 10.1206 17.7903 10.1206 17.8102C10.1206 19.705 11.2496 21.3252 12.8645 22.0701C13.1775 22.2207 13.5034 22.3484 13.8517 22.4296C13.4691 22.5301 13.0683 22.5863 12.6541 22.5863C12.3865 22.5863 12.1279 22.555 11.8727 22.5118C11.8467 22.5045 11.8179 22.5027 11.7924 22.4944C11.7936 22.4979 11.7955 22.5011 11.7966 22.5045C11.7877 22.5029 11.778 22.5035 11.7693 22.5019C12.293 24.1374 13.6893 25.3829 15.4094 25.6935C15.6484 25.7413 15.8931 25.7709 16.1421 25.7825C14.5357 27.0346 12.516 27.781 10.3217 27.781C10.0166 27.781 9.7176 27.7564 9.41986 27.7282C9.35116 27.716 9.27993 27.7114 9.21284 27.6949C9.22588 27.7031 9.23972 27.7102 9.25265 27.7185C9.23527 27.7166 9.21719 27.7173 9.20001 27.7154C11.2811 29.0497 13.753 29.8282 16.4089 29.8282C21.1881 29.8282 24.7639 27.6364 27.0133 24.6304C27.0207 24.6205 27.029 24.6113 27.0363 24.6014C27.2514 24.3125 27.4493 24.0145 27.6396 23.7118C27.6787 23.6501 27.722 23.5911 27.76 23.5288C27.9354 23.2396 28.0937 22.9433 28.2468 22.6445C28.2849 22.5702 28.3282 22.4983 28.365 22.4231C28.5432 22.0593 28.7039 21.6898 28.8488 21.3158C28.8507 21.3115 28.8526 21.3071 28.8544 21.3028C29.4691 19.7136 29.7894 18.0498 29.7894 16.4478C29.7894 16.2437 29.7848 16.041 29.7757 15.8393C30.5066 15.3116 31.1562 14.676 31.7107 13.9649C31.855 13.7887 31.9978 13.6113 32.132 13.427C32.12 13.4325 32.1074 13.4367 32.0953 13.4418Z" fill="white"/>
</svg>
