<svg fill="none" height="51" viewBox="0 0 51 51" width="51" xmlns="http://www.w3.org/2000/svg"><rect fill="#00b900" height="50.9999" rx="10" width="51"/><path d="m43.8625 23.2733c0-8.2534-8.274-14.96808-18.445-14.96808-10.1695 0-18.44454 6.71468-18.44454 14.96808 0 7.3992 6.56194 13.5958 15.42564 14.7676.6007.1294 1.4182.396 1.6251.9094.186.4664.1216 1.1969.0594 1.6679 0 0-.2164 1.3016-.2631 1.5788-.0802.4664-.3705 1.8238 1.5975.9943 1.9688-.8296 10.6225-6.2547 14.4922-10.7088h-.0007c2.6731-2.9312 3.9535-5.906 3.9535-9.2092z" fill="#fff"/><g fill="#00b900"><path d="m37.7199 21.2974c.1983 0 .3585-.1605.3585-.3592v-1.2938c0-.1984-.1602-.3596-.3585-.3596h-5.1684-.0007c-.0969 0-.1842.0389-.2489.1015-.0014.0014-.0032.0025-.0043.0039-.0021.0021-.0039.0042-.0056.0063-.0616.0644-.0997.1514-.0997.2476v.0003 8.0357.0003c0 .0965.0385.1839.1004.2482.0014.0018.0032.0039.0049.0053.0014.0018.0036.0036.0053.005.0644.0619.1517.1004.2479.1004h.0007 5.1684c.1983 0 .3585-.1612.3585-.3592v-1.2942c0-.198-.1602-.3592-.3585-.3592h-3.515v-1.3585h3.515c.1983 0 .3585-.1609.3585-.3593v-1.2937c0-.1984-.1602-.3596-.3585-.3596h-3.515v-1.3582z"/><path d="m30.5751 19.2849h-1.2937c-.1984 0-.3593.1609-.3593.3586v4.7748l-3.683-4.9739c-.0084-.0127-.018-.0248-.0279-.0364l-.0025-.0022c-.007-.0081-.0141-.0152-.0215-.0222-.0022-.0021-.0043-.0039-.0068-.006-.006-.0057-.0123-.011-.019-.0159-.0029-.0029-.0061-.005-.0092-.0075-.0064-.0042-.0124-.0088-.0188-.0127-.0035-.0025-.007-.0046-.0109-.0064-.0064-.0039-.0128-.0077-.0191-.0109-.0039-.0018-.0075-.0039-.0113-.0053-.0068-.0032-.0135-.0064-.0206-.0089-.0042-.0014-.0077-.0028-.0116-.0042-.0071-.0025-.0142-.005-.0216-.0067-.0039-.0014-.0081-.0022-.0124-.0036-.007-.0014-.0138-.0032-.0205-.0046-.0049-.0007-.0102-.0014-.0152-.0017-.0063-.0014-.0127-.0018-.0191-.0025-.006-.0007-.012-.0007-.0184-.0011-.0046 0-.0081-.0007-.0127-.0007h-1.2934c-.1984 0-.3596.1609-.3596.3586v8.037c0 .198.1612.3586.3596.3586h1.2934c.1987 0 .3596-.1606.3596-.3586v-4.7734l3.6876 4.9803c.0254.036.0569.0654.0912.0887.0011.0007.0025.0018.0035.0029.0075.0045.0149.0091.0223.0134.0035.0021.0067.0035.0103.0053.0053.0032.0113.006.0169.0085.0061.0025.0114.0049.0177.0074.0036.0014.0071.0028.0106.0039.0085.0032.0163.0057.0244.0081.0018 0 .0036.0007.0053.0011.0294.0078.0601.0124.092.0124h1.2937c.1988 0 .3593-.1606.3593-.3586v-8.037c0-.1977-.1605-.3586-.3593-.3586z"/><path d="m21.6702 19.2849h-1.2938c-.1983 0-.3596.1609-.3596.3586v8.037c0 .198.1613.3586.3596.3586h1.2938c.1984 0 .3593-.1606.3593-.3586v-8.037c0-.1977-.1609-.3586-.3593-.3586z"/><path d="m18.5514 26.0267h-3.5154v-6.3826c0-.1984-.1609-.3593-.3589-.3593h-1.2941c-.1984 0-.3593.1609-.3593.3593v8.0356.0007c0 .0965.0386.1839.1005.2482.0014.0018.0028.0036.0049.0053.0018.0018.0035.0032.0053.005.0647.0622.1517.1004.2482.1004h.0004 5.1684c.1984 0 .3585-.1612.3585-.3596v-1.2938c0-.1983-.1601-.3592-.3585-.3592z"/></g></svg>