<svg width="40" height="40" viewBox="0 0 40 40" fill="none" xmlns="http://www.w3.org/2000/svg">
<rect width="40" height="39.9999" rx="20" fill="#00B900"/>
<path d="M34.402 18.2534C34.402 11.7801 27.9126 6.51376 19.9354 6.51376C11.9593 6.51376 5.46906 11.7801 5.46906 18.2534C5.46906 24.0567 10.6156 28.9168 17.5676 29.8359C18.0388 29.9374 18.6799 30.1465 18.8422 30.5491C18.9881 30.9149 18.9376 31.4879 18.8888 31.8573C18.8888 31.8573 18.719 32.8781 18.6824 33.0955C18.6195 33.4613 18.3918 34.526 19.9354 33.8754C21.4795 33.2248 28.2668 28.9698 31.3018 25.4763H31.3012C33.3978 23.1773 34.402 20.8442 34.402 18.2534Z" fill="white"/>
<path d="M29.5842 16.7037C29.7397 16.7037 29.8654 16.5778 29.8654 16.4219V15.4072C29.8654 15.2516 29.7397 15.1251 29.5842 15.1251H25.5305H25.53C25.454 15.1251 25.3855 15.1556 25.3347 15.2047C25.3336 15.2058 25.3323 15.2067 25.3314 15.2078C25.3298 15.2094 25.3284 15.2111 25.327 15.2128C25.2787 15.2632 25.2488 15.3315 25.2488 15.4069V15.4072V21.7096V21.7099C25.2488 21.7856 25.279 21.8541 25.3275 21.9046C25.3286 21.906 25.33 21.9076 25.3314 21.9088C25.3325 21.9101 25.3342 21.9115 25.3356 21.9126C25.3861 21.9612 25.4546 21.9914 25.53 21.9914H25.5305H29.5842C29.7397 21.9914 29.8654 21.8649 29.8654 21.7096V20.6946C29.8654 20.5393 29.7397 20.4129 29.5842 20.4129H26.8273V19.3474H29.5842C29.7397 19.3474 29.8654 19.2212 29.8654 19.0656V18.0509C29.8654 17.8953 29.7397 17.7689 29.5842 17.7689H26.8273V16.7037H29.5842Z" fill="#00B900"/>
<path d="M23.9805 15.1253H22.9658C22.8102 15.1253 22.6841 15.2515 22.6841 15.4065V19.1515L19.7954 15.2504C19.7888 15.2404 19.7813 15.231 19.7735 15.2218L19.7716 15.2202C19.7661 15.2138 19.7605 15.2082 19.7547 15.2027C19.753 15.201 19.7514 15.1996 19.7494 15.198C19.7447 15.1935 19.7397 15.1894 19.7344 15.1855C19.7322 15.1833 19.7297 15.1816 19.7272 15.1797C19.7222 15.1763 19.7175 15.1727 19.7125 15.1697C19.7098 15.1677 19.707 15.1661 19.7039 15.1647C19.6989 15.1616 19.6939 15.1586 19.689 15.1561C19.6859 15.1547 19.6831 15.1531 19.6801 15.1519C19.6748 15.1494 19.6695 15.1469 19.664 15.145C19.6607 15.1439 19.6579 15.1428 19.6548 15.1417C19.6493 15.1397 19.6438 15.1378 19.6379 15.1364C19.6349 15.1353 19.6315 15.1347 19.6282 15.1336C19.6227 15.1325 19.6174 15.1311 19.6121 15.13C19.6083 15.1295 19.6041 15.1289 19.6002 15.1286C19.5952 15.1275 19.5902 15.1273 19.5852 15.1267C19.5805 15.1262 19.5758 15.1262 19.5708 15.1259C19.5672 15.1259 19.5644 15.1253 19.5608 15.1253H18.5464C18.3908 15.1253 18.2643 15.2515 18.2643 15.4065V21.7101C18.2643 21.8654 18.3908 21.9913 18.5464 21.9913H19.5608C19.7167 21.9913 19.8429 21.8654 19.8429 21.7101V17.9662L22.7351 21.8723C22.755 21.9006 22.7797 21.9236 22.8066 21.9419C22.8075 21.9425 22.8086 21.9433 22.8094 21.9442C22.8152 21.9478 22.821 21.9514 22.8269 21.9547C22.8296 21.9564 22.8321 21.9575 22.8349 21.9589C22.8391 21.9614 22.8438 21.9636 22.8482 21.9655C22.8529 21.9675 22.8571 21.9694 22.8621 21.9713C22.8649 21.9725 22.8676 21.9736 22.8704 21.9744C22.8771 21.9769 22.8832 21.9788 22.8895 21.9808C22.8909 21.9808 22.8923 21.9813 22.8937 21.9816C22.9167 21.9877 22.9409 21.9913 22.9658 21.9913H23.9805C24.1364 21.9913 24.2623 21.8654 24.2623 21.7101V15.4065C24.2623 15.2515 24.1364 15.1253 23.9805 15.1253Z" fill="#00B900"/>
<path d="M16.9962 15.1253H15.9815C15.8259 15.1253 15.6995 15.2515 15.6995 15.4065V21.7101C15.6995 21.8654 15.8259 21.9913 15.9815 21.9913H16.9962C17.1518 21.9913 17.278 21.8654 17.278 21.7101V15.4065C17.278 15.2515 17.1518 15.1253 16.9962 15.1253Z" fill="#00B900"/>
<path d="M14.5501 20.4129H11.7929V15.4069C11.7929 15.2513 11.6667 15.1251 11.5114 15.1251H10.4964C10.3408 15.1251 10.2147 15.2513 10.2147 15.4069V21.7094V21.7099C10.2147 21.7856 10.2449 21.8541 10.2934 21.9046C10.2945 21.906 10.2956 21.9074 10.2973 21.9088C10.2987 21.9101 10.3001 21.9113 10.3015 21.9126C10.3522 21.9615 10.4204 21.9914 10.4961 21.9914H10.4964H14.5501C14.7056 21.9914 14.8313 21.8649 14.8313 21.7094V20.6946C14.8313 20.5391 14.7056 20.4129 14.5501 20.4129Z" fill="#00B900"/>
</svg>
