<svg fill="none" height="51" viewBox="0 0 52 51" width="52" xmlns="http://www.w3.org/2000/svg"><rect fill="#879fbc" height="51" rx="10" width="51" x=".5"/><g fill="#fff"><path d="m24.175 33.1632-1.7323 1.7472c-.4081.4155-.8666.7162-1.3625.9207-.7424.3054-1.5679.3875-2.3505.2391-.7863-.1485-1.5259-.5155-2.1431-1.1216-.41-.4099-.7097-.8693-.9171-1.3624-.3053-.7443-.3885-1.5689-.24-2.3552.1485-.7844.5164-1.5249 1.1253-2.1366l4.3639-4.419c.408-.409.8675-.7144 1.3634-.9152.7443-.3081 1.567-.3922 2.3523-.2437.7863.1494 1.5259.5173 2.1404 1.1271.3419.3334.6042.7069.8013 1.1057.0177.0038.0327.0093.0467.0121.4566.0897.9441.042 1.3718-.1335.2988-.1195.5677-.297.8003-.5323l1.7696-1.7687c-.3969-.7209-.9021-1.3961-1.5129-2.0003-.8609-.846-1.8611-1.4904-2.9229-1.9125-1.5969-.635-3.331-.7863-4.9933-.4567-1.6575.3315-3.2535 1.1515-4.5263 2.4439l-4.3667 4.4154c-.8516.8591-1.4941 1.8574-1.9172 2.9229-.634 1.5959-.7853 3.3301-.4557 4.9904.3306 1.6604 1.1515 3.2554 2.4448 4.5292.8573.8507 1.8593 1.4932 2.922 1.9153 1.596.6378 3.3302.7854 4.9896.4557 1.6603-.3296 3.2554-1.1523 4.5301-2.442l4.3666-4.4161c.0234-.0233.0421-.0467.0645-.07-.0327.0046-.0645.014-.0971.0187-1.9901.3856-4.0343.1922-5.915-.5576z"/><path d="m41.1138 17.3195c-.3185-1.6623-1.1328-3.2619-2.4159-4.5441-.8526-.8535-1.8509-1.5035-2.9108-1.9312-1.5931-.6463-3.3254-.805-4.9886-.4838-1.6622.3203-3.2619 1.1337-4.5432 2.4149l-4.3918 4.3928c-.0317.0327-.0644.0691-.0999.1028.0131 0 .0252-.0038.0373-.0038 2.0031-.4015 4.0688-.2148 5.9663.5435.0094.001.0188.0085.0299.0113l1.7538-1.751c.409-.4099.8713-.7097 1.3672-.9114.7433-.3035 1.566-.3773 2.3532-.227.7835.1523 1.5204.5239 2.1339 1.1384.409.409.7078.8694.9086 1.3662.3035.7452.38 1.5689.2288 2.3542-.1541.7835-.5258 1.5213-1.1374 2.1339l-4.3928 4.39c-.4081.4099-.8713.7097-1.3672.9124-.7434.3016-1.5688.3763-2.3523.2259-.7863-.154-1.5212-.5248-2.1348-1.1383-.3297-.3316-.5902-.6967-.7835-1.0898-.0205-.0047-.042-.0112-.0597-.0131-.4586-.0868-.9479-.0392-1.3718.1382-.2989.1242-.566.3035-.7966.537l-1.7528 1.7724c.3885.7013.8787 1.3578 1.4699 1.9489.8554.8563 1.8527 1.5044 2.9126 1.9349 1.5913.6453 3.3263.8041 4.9886.4819 1.6604-.3203 3.2591-1.1318 4.5441-2.4168l4.3891-4.39c.8554-.8545 1.5044-1.8518 1.9321-2.9117.6462-1.5921.8068-3.3254.4837-4.9876z"/></g></svg>