<svg width="40" height="40" viewBox="0 0 40 40" fill="none" xmlns="http://www.w3.org/2000/svg">
<rect width="40" height="40" rx="20" fill="#879FBC"/>
<path d="M18.5686 26.0103L17.2099 27.3807C16.8899 27.7066 16.5302 27.9424 16.1413 28.1028C15.559 28.3423 14.9116 28.4068 14.2978 28.2903C13.6811 28.1739 13.101 27.886 12.6169 27.4107C12.2954 27.0891 12.0602 26.7288 11.8976 26.3421C11.6581 25.7584 11.5929 25.1116 11.7094 24.4949C11.8258 23.8797 12.1144 23.2989 12.5919 22.8191L16.0146 19.3533C16.3347 19.0324 16.695 18.793 17.084 18.6355C17.6677 18.3938 18.313 18.3278 18.9289 18.4443C19.5456 18.5615 20.1257 18.8501 20.6077 19.3283C20.8758 19.5898 21.0815 19.8828 21.2361 20.1955C21.25 20.1985 21.2617 20.2028 21.2727 20.205C21.6309 20.2753 22.0132 20.238 22.3486 20.1003C22.583 20.0066 22.7939 19.8674 22.9763 19.6828L24.3643 18.2956C24.053 17.7302 23.6567 17.2006 23.1777 16.7267C22.5024 16.0632 21.718 15.5578 20.8852 15.2267C19.6328 14.7287 18.2727 14.61 16.9689 14.8685C15.6689 15.1286 14.4171 15.7717 13.4189 16.7853L9.99401 20.2483C9.32604 20.9222 8.82213 21.7051 8.49034 22.5408C7.99304 23.7925 7.87435 25.1527 8.13292 26.4549C8.39219 27.7572 9.03602 29.0081 10.0504 30.0072C10.7228 30.6744 11.5087 31.1783 12.3422 31.5094C13.5939 32.0097 14.954 32.1254 16.2555 31.8668C17.5578 31.6083 18.8088 30.963 19.8085 29.9515L23.2334 26.4879C23.2517 26.4696 23.2664 26.4513 23.2839 26.433C23.2583 26.4366 23.2334 26.444 23.2078 26.4477C21.647 26.7501 20.0437 26.5985 18.5686 26.0103Z" fill="white"/>
<path d="M31.854 13.5842C31.6042 12.2804 30.9655 11.0258 29.9592 10.0202C29.2905 9.35077 28.5075 8.841 27.6762 8.50552C26.4267 7.99865 25.068 7.87415 23.7636 8.12611C22.4598 8.37731 21.2052 9.01528 20.2003 10.0202L16.7557 13.4655C16.7308 13.4911 16.7052 13.5197 16.6773 13.5461C16.6876 13.5461 16.6971 13.5431 16.7066 13.5431C18.2777 13.2282 19.8978 13.3746 21.3861 13.9694C21.3934 13.9701 21.4008 13.976 21.4095 13.9782L22.785 12.6049C23.1059 12.2834 23.4684 12.0483 23.8573 11.8901C24.4404 11.652 25.0856 11.5941 25.703 11.7121C26.3175 11.8315 26.8955 12.123 27.3766 12.6049C27.6974 12.9257 27.9318 13.2868 28.0893 13.6764C28.3273 14.2609 28.3874 14.9069 28.2687 15.5229C28.1479 16.1374 27.8563 16.716 27.3766 17.1965L23.9313 20.6396C23.6112 20.9611 23.2479 21.1963 22.859 21.3552C22.276 21.5918 21.6285 21.6504 21.0141 21.5325C20.3974 21.4116 19.8209 21.1208 19.3397 20.6396C19.0811 20.3796 18.8768 20.0932 18.7252 19.7849C18.7091 19.7812 18.6923 19.7761 18.6783 19.7746C18.3187 19.7065 17.935 19.7439 17.6024 19.8831C17.368 19.9805 17.1586 20.1211 16.9777 20.3042L15.6029 21.6943C15.9076 22.2444 16.2921 22.7593 16.7558 23.2229C17.4267 23.8945 18.2089 24.4028 19.0402 24.7405C20.2882 25.2466 21.6491 25.3711 22.9528 25.1184C24.2551 24.8672 25.509 24.2307 26.5168 23.2229L29.9592 19.7797C30.6301 19.1096 31.1392 18.3274 31.4746 17.496C31.9814 16.2473 32.1074 14.8879 31.854 13.5842Z" fill="white"/>
</svg>
