<?xml version="1.0" encoding="UTF-8" standalone="no"?><!DOCTYPE svg PUBLIC "-//W3C//DTD SVG 1.1//EN" "http://www.w3.org/Graphics/SVG/1.1/DTD/svg11.dtd"><svg width="100%" height="100%" viewBox="0 0 23 28" version="1.1" xmlns="http://www.w3.org/2000/svg" xmlns:xlink="http://www.w3.org/1999/xlink" xml:space="preserve" xmlns:serif="http://www.serif.com/" style="fill-rule:evenodd;clip-rule:evenodd;stroke-linejoin:round;stroke-miterlimit:2;"><path d="M11.138,0c-6.067,0 -10.984,4.918 -10.984,10.985c0,3.743 1.895,7.02 4.733,9.033c2.59,1.837 3.162,2.275 4.072,4.014c0.721,1.375 1.889,3.789 1.889,3.789c0.055,0.109 0.167,0.179 0.29,0.179c0.123,0 0.236,-0.07 0.291,-0.179c0,0 1.169,-2.414 1.889,-3.789c0.91,-1.739 1.482,-2.177 4.072,-4.014c2.838,-2.013 4.733,-5.29 4.733,-9.033c0,-6.067 -4.918,-10.985 -10.985,-10.985Zm0,16.949c-3.5,0 -5.964,-1.899 -5.964,-5.964c0,-3.752 2.464,-5.964 5.964,-5.964c3.807,0 5.964,2.912 5.964,5.964c0,3.642 -2.464,5.964 -5.964,5.964Z" style="fill:#fff;fill-rule:nonzero;"/></svg>