<svg width="50" height="40" viewBox="0 0 50 40" fill="none" xmlns="http://www.w3.org/2000/svg">
<path d="M30.7221 8.46387L28.6749 9.64582C24.6416 5.53591 18.209 4.48775 12.9904 7.5C7.77237 10.5134 5.46382 16.6082 7.00645 22.1561L4.95924 23.3381C4.95924 23.3381 7.6267 31.3876 18.4019 31.5869C19.1102 31.6453 19.8243 31.6378 20.5387 31.5783L22.0156 34.7729L32.0968 28.9526L30.0686 26.0763C30.4774 25.4872 30.8409 24.8726 31.1445 24.23C36.3595 14.7987 30.7221 8.46387 30.7221 8.46387ZM17.8407 15.901L9.33198 20.8135C8.99704 19.2115 9.04887 17.572 9.46292 16.0232C10.1504 13.4612 11.806 11.1716 14.2838 9.74028C16.7623 8.31007 19.5729 8.02108 22.1354 8.70675C23.6838 9.12257 25.1294 9.89735 26.3494 10.9885L17.8407 15.901Z" fill="#FFA800"/>
<rect x="27.0232" y="10.6816" width="12" height="2" rx="1" fill="#FFA800"/>
<rect x="41.0232" y="10.6816" width="4" height="2" rx="1" fill="#FFA800"/>
<rect x="23.0232" y="23.6816" width="15" height="2" rx="1" fill="#FFA800"/>
<rect x="45.0232" y="26.6816" width="4" height="2" rx="1" fill="#FFA800"/>
<rect x="29.0232" y="16.6816" width="15" height="2" rx="1" fill="#FFA800"/>
<rect x="29.0232" y="26.6816" width="15" height="2" rx="1" fill="#FFA800"/>
</svg>
